<svg width="20" height="20" viewBox="0 0 20 20" fill="none" xmlns="http://www.w3.org/2000/svg">
<g id="facebook logo" clip-path="url(#clip0_118_2463)">
<path id="Vector" d="M0 0.746094H20V19.7461H0" fill="white"/>
<path id="Vector_2" d="M12.9297 12.3246H11.1719V17.2973C13.0361 17.0171 14.7206 16.0795 15.8892 14.6716C17.0579 13.2637 17.6249 11.4889 17.4769 9.70141C17.329 7.91391 16.4772 6.2451 15.0913 5.02794C13.7054 3.81078 11.8874 3.13477 10 3.13477C8.11263 3.13477 6.29464 3.81078 4.90875 5.02794C3.52286 6.2451 2.67099 7.91391 2.52308 9.70141C2.37517 11.4889 2.94211 13.2637 4.11079 14.6716C5.27946 16.0795 6.96394 17.0171 8.82814 17.2973V12.3246H6.91408V10.2465H8.82814V8.57655C8.93231 6.37473 10.4427 5.53358 13.3594 6.05311V7.79725H12.3438C11.5886 7.82199 11.1979 8.19309 11.1719 8.91053V10.2465H13.2617" fill="#1877F2"/>
</g>
<defs>
<clipPath id="clip0_118_2463">
<rect width="20" height="19" fill="white" transform="translate(0 0.746094)"/>
</clipPath>
</defs>
</svg>
