<svg width="24" height="24" viewBox="0 0 24 24" fill="none" xmlns="http://www.w3.org/2000/svg">
<g id="clock logo" clip-path="url(#clip0_118_2202)">
<g id="Group">
<g id="Group_2">
<path id="Vector" d="M12 0C5.37257 0 0 5.37257 0 12C0 18.6274 5.37257 23.9999 12 23.9999C18.6274 23.9999 23.9999 18.6274 23.9999 12C23.9929 5.37554 18.6245 0.00708147 12 0ZM12 22.2857C6.31933 22.2857 1.71427 17.6806 1.71427 12C1.71427 6.31933 6.31933 1.71427 12 1.71427C17.6806 1.71427 22.2857 6.31933 22.2857 12C22.2796 17.6781 17.6781 22.2796 12 22.2857Z" fill="black"/>
</g>
</g>
<g id="Group_3">
<g id="Group_4">
<path id="Vector_2" d="M12 4.28613C11.5266 4.28613 11.1428 4.66989 11.1428 5.14329V11.1433H5.14286C4.66946 11.1433 4.28571 11.5271 4.28571 12.0005C4.28571 12.4739 4.66946 12.8576 5.14286 12.8576H12C12.4734 12.8576 12.8571 12.4738 12.8571 12.0004V5.14329C12.8571 4.66989 12.4734 4.28613 12 4.28613Z" fill="black"/>
</g>
</g>
</g>
<defs>
<clipPath id="clip0_118_2202">
<rect width="24" height="24" fill="white"/>
</clipPath>
</defs>
</svg>
