<svg width="20" height="20" viewBox="0 0 20 20" fill="none" xmlns="http://www.w3.org/2000/svg">
<g id="linkedin logo" clip-path="url(#clip0_118_2469)">
<g id="Group">
<path id="Vector" fill-rule="evenodd" clip-rule="evenodd" d="M2.22189 19.7461H17.7774C19.0047 19.7461 19.9997 18.8009 19.9997 17.635V2.8572C19.9997 1.69127 19.0047 0.746094 17.7774 0.746094H2.22189C0.994587 0.746094 -0.000335693 1.69127 -0.000335693 2.8572V17.635C-0.000335693 18.8009 0.994587 19.7461 2.22189 19.7461Z" fill="#007EBB"/>
<path id="Vector_2" fill-rule="evenodd" clip-rule="evenodd" d="M17.2219 17.107H14.254V12.3048C14.254 10.9881 13.7274 10.2524 12.6304 10.2524C11.437 10.2524 10.8136 11.018 10.8136 12.3048V17.107H7.95336V7.95884H10.8136V9.19109C10.8136 9.19109 11.6736 7.67935 13.717 7.67935C15.7596 7.67935 17.2219 8.86428 17.2219 11.3149V17.107ZM4.54114 6.76096C3.5669 6.76096 2.77744 6.00509 2.77744 5.07286C2.77744 4.14064 3.5669 3.38477 4.54114 3.38477C5.51539 3.38477 6.30438 4.14064 6.30438 5.07286C6.30438 6.00509 5.51539 6.76096 4.54114 6.76096ZM3.06426 17.107H6.04671V7.95884H3.06426V17.107Z" fill="white"/>
</g>
</g>
<defs>
<clipPath id="clip0_118_2469">
<rect width="20" height="19" fill="white" transform="translate(-0.000335693 0.746094)"/>
</clipPath>
</defs>
</svg>
