<svg width="24" height="25" viewBox="0 0 24 25" fill="none" xmlns="http://www.w3.org/2000/svg">
<g id="phone-call 1">
<g id="Group">
<g id="Group_2">
<path id="Vector" d="M7.44501 17.3021C10.402 20.1891 14.214 21.9451 18.789 22.5641C19.796 22.7001 20.754 22.0671 21.011 21.0831L22 17.3041L15.633 14.5721L13.075 17.0931C11.969 16.4241 10.94 15.6341 10.008 14.7381C9.11201 13.8061 8.32201 12.7771 7.65301 11.6711L10.174 9.11309L7.44201 2.74609L3.66301 3.73509C2.68001 3.99209 2.04601 4.95009 2.18201 5.95709C2.80201 10.5321 4.55701 14.3451 7.44401 17.3011L7.44501 17.3021Z" stroke="#212121" stroke-width="2" stroke-miterlimit="10" stroke-linecap="square"/>
<path id="Vector_2" d="M14 2.74609C18.418 2.74609 22 6.32809 22 10.7461" stroke="#212121" stroke-width="2" stroke-miterlimit="10" stroke-linecap="square"/>
<path id="Vector_3" d="M14 6.74609C16.209 6.74609 18 8.53709 18 10.7461" stroke="#212121" stroke-width="2" stroke-miterlimit="10" stroke-linecap="square"/>
</g>
</g>
</g>
</svg>
