<svg width="40" height="41" viewBox="0 0 40 41" fill="none" xmlns="http://www.w3.org/2000/svg">
<g id="boss-scheme-svgrepo-com 1" clip-path="url(#clip0_118_2327)">
<path id="Vector" d="M24.7111 22.0982H15.2889C14.5526 22.0982 13.9556 21.5012 13.9556 20.7648V16.0537C13.9556 14.3525 14.6784 12.7209 15.9388 11.5774C16.4757 11.0903 17.3035 11.1214 17.8024 11.6476L20 13.9662L22.1976 11.6476C22.6928 11.125 23.5136 11.09 24.0517 11.5687C25.272 12.6548 26.0445 14.2751 26.0445 16.0537V20.7648C26.0445 21.5012 25.4475 22.0982 24.7111 22.0982Z" fill="#00D8E0"/>
<g id="Group">
<path id="Vector_2" d="M24.0516 11.5687C23.5135 11.09 22.6928 11.125 22.1976 11.6476L20 13.9662V22.0982H24.7111C25.4474 22.0982 26.0445 21.5012 26.0445 20.7648V16.0537C26.0445 14.2751 25.272 12.6548 24.0516 11.5687Z" fill="#00A2A9"/>
<path id="Vector_3" d="M21.3334 22.0977V13.6501C21.3334 13.3475 21.2314 13.0695 21.0617 12.8457L20 13.9657L18.9385 12.8457C18.7687 13.0695 18.6667 13.3475 18.6667 13.6501V22.0977H21.3334Z" fill="#00A2A9"/>
</g>
<path id="Vector_4" d="M21.3334 13.6501C21.3334 13.3475 21.2314 13.0695 21.0616 12.8457L20 13.9657V22.0977H21.3334V13.6501Z" fill="#007F85"/>
<path id="Vector_5" d="M19.0323 16.8211L15.867 13.4816C15.3525 12.9388 15.3856 12.0789 15.9386 11.577C18.2405 9.48792 21.7556 9.48417 24.0614 11.5771C24.6152 12.0797 24.6467 12.9396 24.133 13.4816L20.9678 16.8211C20.442 17.376 19.5577 17.3753 19.0323 16.8211Z" fill="#FF9900"/>
<path id="Vector_6" d="M24.0613 11.5771C22.9089 10.5311 21.4542 10.0087 20 10.0088V17.237C20.3524 17.237 20.7049 17.0984 20.9677 16.8211L24.133 13.4815C24.6466 12.9396 24.6152 12.0797 24.0613 11.5771Z" fill="#FF4F19"/>
<path id="Vector_7" d="M20 12.587C16.6671 12.587 13.9556 9.87539 13.9556 6.5425C13.9556 3.20961 16.6671 0.498047 20 0.498047C23.3329 0.498047 26.0445 3.20961 26.0445 6.5425C26.0445 9.87539 23.3329 12.587 20 12.587Z" fill="#FFDB2D"/>
<path id="Vector_8" d="M31.8222 27.0761H21.3334V24.8539C21.3334 24.1175 20.7364 23.5205 20 23.5205C19.2637 23.5205 18.6667 24.1175 18.6667 24.8539V27.0761H8.17784C7.44151 27.0761 6.84448 27.673 6.84448 28.4094V34.4539C6.84448 35.1902 7.44144 35.7872 8.17784 35.7872C8.91425 35.7872 9.5112 35.1903 9.5112 34.4539V29.7428H18.6667V34.4539C18.6667 35.1902 19.2637 35.7872 20.0001 35.7872C20.7364 35.7872 21.3335 35.1903 21.3335 34.4539V29.7428H30.489V34.4539C30.489 35.1902 31.086 35.7872 31.8224 35.7872C32.5588 35.7872 33.1557 35.1903 33.1557 34.4539V28.4094C33.1556 27.673 32.5586 27.0761 31.8222 27.0761Z" fill="#A7A9AC"/>
<path id="Vector_9" d="M31.8222 27.0761H21.3334V24.8539C21.3334 24.1175 20.7364 23.5205 20 23.5205V35.7871C20.7363 35.7871 21.3334 35.1902 21.3334 34.4538V29.7427H30.4889V34.4538C30.4889 35.1901 31.0859 35.7871 31.8223 35.7871C32.5587 35.7871 33.1556 35.1902 33.1556 34.4538V28.4093C33.1555 27.673 32.5586 27.0761 31.8222 27.0761Z" fill="#808285"/>
<g id="Group_2">
<path id="Vector_10" d="M10.4889 40.4979H5.77782C5.04149 40.4979 4.44446 39.901 4.44446 39.1646V34.4535C4.44446 33.7171 5.04141 33.1201 5.77782 33.1201H10.4889C11.2252 33.1201 11.8223 33.7171 11.8223 34.4535V39.1646C11.8222 39.901 11.2252 40.4979 10.4889 40.4979Z" fill="#B9F7F9"/>
<path id="Vector_11" d="M22.3111 40.4979H17.6C16.8637 40.4979 16.2667 39.901 16.2667 39.1646V34.4535C16.2667 33.7171 16.8636 33.1201 17.6 33.1201H22.3111C23.0474 33.1201 23.6445 33.7171 23.6445 34.4535V39.1646C23.6445 39.901 23.0475 40.4979 22.3111 40.4979Z" fill="#B9F7F9"/>
</g>
<path id="Vector_12" d="M20 0.498047V12.587C23.3329 12.587 26.0445 9.87539 26.0445 6.5425C26.0445 3.20961 23.3329 0.498047 20 0.498047Z" fill="#FF9900"/>
<g id="Group_3">
<path id="Vector_13" d="M22.3111 33.1201H20V40.4979H22.3111C23.0474 40.4979 23.6445 39.901 23.6445 39.1646V34.4535C23.6445 33.7171 23.0475 33.1201 22.3111 33.1201Z" fill="#00D8E0"/>
<path id="Vector_14" d="M34.2222 40.4979H29.5111C28.7748 40.4979 28.1777 39.901 28.1777 39.1646V34.4535C28.1777 33.7171 28.7747 33.1201 29.5111 33.1201H34.2222C34.9585 33.1201 35.5555 33.7171 35.5555 34.4535V39.1646C35.5555 39.901 34.9586 40.4979 34.2222 40.4979Z" fill="#00D8E0"/>
</g>
</g>
<defs>
<clipPath id="clip0_118_2327">
<rect width="40" height="40" fill="white" transform="translate(0 0.498047)"/>
</clipPath>
</defs>
</svg>
