<svg width="58" height="59" viewBox="0 0 58 59" fill="none" xmlns="http://www.w3.org/2000/svg">
<g id="resource-prioritization-svgrepo-com 1">
<g clip-path="url(#clip0_118_2256)">
<g id="progressive-webapps/loading-performance/resource-prioritization">
<g id="container">
<path id="mask" d="M46.0822 1.29297H11.9178C5.77458 1.29297 0.794519 6.27303 0.794519 12.4163V46.5806C0.794519 52.7239 5.77458 57.7039 11.9178 57.7039H46.0822C52.2254 57.7039 57.2055 52.7239 57.2055 46.5806V12.4163C57.2055 6.27303 52.2254 1.29297 46.0822 1.29297Z" fill="white" stroke="white" stroke-width="21.9178"/>
</g>
<g id="priority">
<path id="Shape" d="M38.9128 20.6841V25.0649C38.9128 25.6781 38.4311 26.1601 37.8176 26.1601C37.2042 26.1601 36.7225 25.6781 36.7225 25.0649V20.6841C36.7225 20.0706 37.2042 19.5889 37.8176 19.5889C38.4311 19.5889 38.9128 20.0706 38.9128 20.6841Z" fill="#7C8388"/>
<path id="Shape_2" d="M38.9128 33.8999V38.2807C38.9128 38.8939 38.4311 39.3759 37.8176 39.3759C37.2042 39.3759 36.7225 38.8939 36.7225 38.2807V33.8999C36.7225 33.2864 37.2042 32.8047 37.8176 32.8047C38.4311 32.8047 38.9128 33.2867 38.9128 33.8999Z" fill="#7C8388"/>
<path id="Shape_3" d="M37.8176 26.1601V19.5889C38.4311 19.5889 38.9128 20.0706 38.9128 20.6841V25.0649C38.9128 25.6781 38.4311 26.1601 37.8176 26.1601Z" fill="#575F64"/>
<path id="Shape_4" d="M37.8176 39.3759V32.8047C38.4311 32.8047 38.9128 33.2864 38.9128 33.8999V38.2807C38.9128 38.8939 38.4311 39.3759 37.8176 39.3759Z" fill="#575F64"/>
<path id="Shape_5" d="M44.4616 37.1855H31.1734C29.3555 37.1855 27.8881 38.6529 27.8881 40.4711V44.9247C27.8881 46.7426 29.3555 48.2102 31.1734 48.2102H44.4616C46.2798 48.2102 47.7472 46.7426 47.7472 44.9247V40.4711C47.7472 38.6529 46.2798 37.1855 44.4616 37.1855Z" fill="#FFDA2D"/>
<path id="Shape_6" d="M47.7472 40.4711V44.9247C47.7472 46.7426 46.2798 48.2102 44.4616 48.2102H37.8176V37.1855H44.4616C46.2798 37.1855 47.7472 38.6529 47.7472 40.4711Z" fill="#FDBF00"/>
<path id="Shape_7" d="M44.4616 23.9697H31.1734C29.3555 23.9697 27.8881 25.4371 27.8881 27.2553V31.6358C27.8881 33.4537 29.3555 34.9944 31.1734 34.9944H44.4616C46.2798 34.9944 47.7472 33.4537 47.7472 31.6358V27.2553C47.7472 25.4371 46.2798 23.9697 44.4616 23.9697Z" fill="#FFDA2D"/>
<path id="Shape_8" d="M47.7472 27.2553V31.6358C47.7472 33.4537 46.2798 34.9944 44.4616 34.9944H37.8176V23.9697H44.4616C46.2798 23.9697 47.7472 25.4371 47.7472 27.2553Z" fill="#FDBF00"/>
<path id="Shape_9" d="M44.4616 10.8281H31.1734C29.3555 10.8281 27.8881 12.2955 27.8881 14.1137V18.4942C27.8881 20.3121 29.3555 21.7798 31.1734 21.7798H44.4616C46.2798 21.7798 47.7472 20.3121 47.7472 18.4942V14.1137C47.7472 12.2955 46.2798 10.8281 44.4616 10.8281Z" fill="#FFDA2D"/>
<path id="Shape_10" d="M47.7472 14.1137V18.4942C47.7472 20.3121 46.2798 21.7798 44.4616 21.7798H37.8176V10.8281H44.4616C46.2798 10.8281 47.7472 12.2955 47.7472 14.1137Z" fill="#FDBF00"/>
<g id="Group">
<path id="Shape_11" d="M15.8413 43.7564C12.8218 43.7564 10.3653 41.3 10.3653 38.2807C10.3653 37.6752 10.855 37.1855 11.4605 37.1855C12.0657 37.1855 12.5557 37.6752 12.5557 38.2807C12.5557 40.0924 14.0293 41.5661 15.8413 41.5661C16.4465 41.5661 16.9362 42.056 16.9362 42.6612C16.9362 43.2667 16.4465 43.7564 15.8413 43.7564Z" fill="#00C8C8"/>
<path id="Shape_12" d="M11.4605 34.9948C10.855 34.9948 10.3653 34.5048 10.3653 33.8996V29.4458C10.3653 28.8406 10.855 28.3506 11.4605 28.3506C12.0657 28.3506 12.5557 28.8406 12.5557 29.4458V33.8996C12.5557 34.5048 12.0657 34.9948 11.4605 34.9948Z" fill="#00C8C8"/>
<path id="Shape_13" d="M25.21 15.3927L18.6389 11.0119C18.132 10.6751 17.455 10.812 17.1201 11.3156C16.7844 11.8193 16.9202 12.4984 17.4239 12.8344L20.9853 15.2087H15.8413C12.8218 15.2087 10.3653 17.6652 10.3653 20.6844V25.0652C10.3653 25.6704 10.855 26.1604 11.4605 26.1604C12.0657 26.1604 12.5557 25.6704 12.5557 25.0652V20.6844C12.5557 18.8728 14.0293 17.3991 15.8413 17.3991H20.9855L17.4242 19.7732C16.9202 20.1092 16.7844 20.7882 17.1204 21.2919C17.4504 21.7882 18.1266 21.9353 18.6391 21.5957L25.21 17.2152C25.5149 17.0118 25.6977 16.6696 25.6977 16.3039C25.6977 15.9383 25.5149 15.5957 25.21 15.3927Z" fill="#00C8C8"/>
<path id="Shape_14" d="M24.6026 43.7558H20.2218C19.6166 43.7558 19.1266 43.2661 19.1266 42.6606C19.1266 42.0554 19.6166 41.5654 20.2218 41.5654H24.6026C25.2078 41.5654 25.6977 42.0554 25.6977 42.6606C25.6977 43.2661 25.2078 43.7558 24.6026 43.7558Z" fill="#00C8C8"/>
</g>
<path id="Shape_15" d="M43.3664 16.3032C43.3664 16.9167 42.8847 17.3984 42.2715 17.3984H33.3638C32.7507 17.3984 32.2687 16.9167 32.2687 16.3032C32.2687 15.69 32.7507 15.208 33.3638 15.208H42.2715C42.8847 15.208 43.3664 15.69 43.3664 16.3032Z" fill="#FDBF00"/>
<path id="Shape_16" d="M43.3664 29.4458C43.3664 30.059 42.8847 30.541 42.2715 30.541H33.3638C32.7507 30.541 32.2687 30.059 32.2687 29.4458C32.2687 28.8326 32.7507 28.3506 33.3638 28.3506H42.2715C42.8847 28.3506 43.3664 28.8326 43.3664 29.4458Z" fill="#FDBF00"/>
<path id="Shape_17" d="M43.3664 42.6606C43.3664 43.2738 42.8847 43.7558 42.2715 43.7558H33.3638C32.7507 43.7558 32.2687 43.2738 32.2687 42.6606C32.2687 42.0474 32.7507 41.5654 33.3638 41.5654H42.2715C42.8847 41.5654 43.3664 42.0474 43.3664 42.6606Z" fill="#FDBF00"/>
<path id="Shape_18" d="M43.3664 42.6606C43.3664 43.2738 42.8846 43.7558 42.2715 43.7558H37.8176V41.5654H42.2715C42.8846 41.5654 43.3664 42.0474 43.3664 42.6606Z" fill="#FF9100"/>
<path id="Shape_19" d="M43.3664 29.4458C43.3664 30.059 42.8846 30.541 42.2715 30.541H37.8176V28.3506H42.2715C42.8846 28.3506 43.3664 28.8326 43.3664 29.4458Z" fill="#FF9100"/>
<path id="Shape_20" d="M42.2715 17.3984H37.8176V15.208H42.2715C42.8846 15.208 43.3664 15.69 43.3664 16.3032C43.3664 16.9167 42.8846 17.3984 42.2715 17.3984Z" fill="#FF9100"/>
</g>
</g>
</g>
<rect x="1" y="1.49805" width="56" height="56" rx="28" stroke="#EB9411" stroke-width="2"/>
</g>
<defs>
<clipPath id="clip0_118_2256">
<rect y="0.498047" width="58" height="58" rx="29" fill="white"/>
</clipPath>
</defs>
</svg>
