<svg width="150" height="28" viewBox="0 0 150 28" fill="none" xmlns="http://www.w3.org/2000/svg">
<g id="Social Media">
<g id="X logo">
<path id="Vector" d="M23.4449 12.7872L29.4011 6.08301H27.9896L22.818 11.9043L18.6872 6.08301H13.9227L20.169 14.8857L13.9227 21.9163H15.3342L20.7956 15.7686L25.1582 21.9163H29.9227L23.4442 12.7872H23.4449ZM21.5115 14.9633L20.8787 14.0868L15.8427 7.11186H18.0109L22.075 12.7406L22.7078 13.6171L27.9903 20.934H25.8221L21.5115 14.9633Z" fill="#1A1A1A"/>
</g>
<g id="facebook logo">
<path id="Vector_2" d="M42.7133 4.5H59.093V23.5H42.7133" fill="white"/>
<path id="Vector_3" d="M53.3024 16.0785H51.8628V21.0512C53.3896 20.771 54.7691 19.8334 55.7262 18.4255C56.6834 17.0176 57.1477 15.2428 57.0265 13.4553C56.9054 11.6678 56.2077 9.99901 55.0727 8.78185C53.9377 7.56469 52.4488 6.88867 50.9031 6.88867C49.3573 6.88867 47.8684 7.56469 46.7334 8.78185C45.5984 9.99901 44.9007 11.6678 44.7796 13.4553C44.6584 15.2428 45.1228 17.0176 46.0799 18.4255C47.037 19.8334 48.4166 20.771 49.9433 21.0512V16.0785H48.3757V14.0004H49.9433V12.3305C50.0286 10.1286 51.2656 9.28749 53.6543 9.80702V11.5512H52.8226C52.2041 11.5759 51.8841 11.947 51.8628 12.6644V14.0004H53.5744" fill="#1877F2"/>
</g>
<g id="Group">
<path id="Vector_4" d="M97.224 7.50153C97.0328 6.33591 96.4809 5.42539 95.7744 5.10998C94.5033 4.53809 89.3875 4.53809 89.3875 4.53809C89.3875 4.53809 84.2717 4.55542 83.0007 5.12731C82.2941 5.44272 81.7422 6.35324 81.551 7.51886C81.1665 11.2448 81.0174 16.9221 81.5615 20.4991C81.7527 21.6647 82.3046 22.5752 83.0112 22.8906C84.2822 23.4625 89.398 23.4625 89.398 23.4625C89.398 23.4625 94.5138 23.4625 95.7849 22.8906C96.4914 22.5752 97.0433 21.6647 97.2345 20.4991C97.64 16.7679 97.765 11.094 97.224 7.50153Z" fill="#FF0000"/>
<path id="Vector_5" d="M87.759 18.0558L92.0029 14.0005L87.759 9.94531V18.0558Z" fill="white"/>
</g>
<g id="linkedin logo">
<g id="Group_2">
<path id="Vector_6" fill-rule="evenodd" clip-rule="evenodd" d="M121.518 23.5H134.258C135.263 23.5 136.078 22.5548 136.078 21.3889V6.61111C136.078 5.44518 135.263 4.5 134.258 4.5H121.518C120.513 4.5 119.698 5.44518 119.698 6.61111V21.3889C119.698 22.5548 120.513 23.5 121.518 23.5Z" fill="#007EBB"/>
<path id="Vector_7" fill-rule="evenodd" clip-rule="evenodd" d="M133.803 20.8609H131.372V16.0587C131.372 14.742 130.941 14.0063 130.042 14.0063C129.065 14.0063 128.554 14.772 128.554 16.0587V20.8609H126.212V11.7127H128.554V12.945C128.554 12.945 129.259 11.4333 130.932 11.4333C132.605 11.4333 133.803 12.6182 133.803 15.0689V20.8609ZM123.417 10.5149C122.619 10.5149 121.973 9.759 121.973 8.82677C121.973 7.89454 122.619 7.13867 123.417 7.13867C124.215 7.13867 124.861 7.89454 124.861 8.82677C124.861 9.759 124.215 10.5149 123.417 10.5149ZM122.208 20.8609H124.65V11.7127H122.208V20.8609Z" fill="white"/>
</g>
</g>
</g>
</svg>
