<svg width="303" height="343" viewBox="0 0 303 343" fill="none" xmlns="http://www.w3.org/2000/svg">
<path d="M0.687339 62.8781C3.72621 140.715 5.74587 183.12 12.3214 247.124C17.8838 271.598 23.7678 281.725 42.8608 288.633C118.899 310.338 172.239 327.715 234.096 342.523C259.281 341.919 268.259 335.358 276.269 320.676C289.957 268.89 292.517 212.188 302.446 140.072C303.777 112.26 298.272 100.964 276.269 89.0948C195.661 55.2456 78.4902 8.98807 78.4902 8.98807C78.4902 8.98807 56.0931 -1.78843 42.8608 0.977393C27.3851 5.83038 20.6526 11.2039 12.3214 22.0964C2.71006 34.9489 0.192719 43.8858 0.687339 62.8781Z" fill="#131313"/>
</svg>
