<svg width="344" height="405" viewBox="0 0 344 405" fill="none" xmlns="http://www.w3.org/2000/svg">
<g filter="url(#filter0_d_146_1619)">
<path d="M311.44 76.3482C318.38 153.935 321.8 196.25 323.463 260.569C321.076 285.554 316.536 296.35 298.483 305.643C225.845 336.893 175.164 360.949 115.71 383.546C90.6543 386.167 80.9103 380.808 71.0884 367.271C50.8909 317.66 41.1008 261.751 22.0305 191.497C17.1538 164.084 21.1694 152.177 41.4731 137.591C117.091 93.7117 227.384 32.8501 227.384 32.8501C227.384 32.8501 248.219 19.298 261.697 20.3489C277.666 23.183 285.03 27.6514 294.686 37.3892C305.862 48.907 309.502 57.4487 311.44 76.3482Z" fill="#EB9411" fill-opacity="0.44" shape-rendering="crispEdges"/>
</g>
<defs>
<filter id="filter0_d_146_1619" x="0.155792" y="0.291016" width="343.307" height="403.9" filterUnits="userSpaceOnUse" color-interpolation-filters="sRGB">
<feFlood flood-opacity="0" result="BackgroundImageFix"/>
<feColorMatrix in="SourceAlpha" type="matrix" values="0 0 0 0 0 0 0 0 0 0 0 0 0 0 0 0 0 0 127 0" result="hardAlpha"/>
<feOffset/>
<feGaussianBlur stdDeviation="10"/>
<feComposite in2="hardAlpha" operator="out"/>
<feColorMatrix type="matrix" values="0 0 0 0 0 0 0 0 0 0 0 0 0 0 0 0 0 0 0.1 0"/>
<feBlend mode="normal" in2="BackgroundImageFix" result="effect1_dropShadow_146_1619"/>
<feBlend mode="normal" in="SourceGraphic" in2="effect1_dropShadow_146_1619" result="shape"/>
</filter>
</defs>
</svg>
