<svg width="303" height="343" viewBox="0 0 303 343" fill="none" xmlns="http://www.w3.org/2000/svg">
<path d="M302.573 62.8761C299.534 140.713 297.514 183.118 290.939 247.122C285.376 271.596 279.492 281.723 260.399 288.632C184.361 310.336 131.021 327.713 69.1644 342.521C43.9797 341.917 35.001 335.356 26.9909 320.674C13.3036 268.888 10.7437 212.186 0.81427 140.07C-0.516693 112.258 4.98865 100.962 26.9909 89.0929C107.599 55.2437 224.77 8.98611 224.77 8.98611C224.77 8.98611 247.167 -1.79038 260.399 0.97544C275.875 5.82842 282.608 11.2019 290.939 22.0945C300.55 34.9469 303.068 43.8839 302.573 62.8761Z" fill="#131313"/>
</svg>
