<svg width="40" height="41" viewBox="0 0 40 41" fill="none" xmlns="http://www.w3.org/2000/svg">
<g id="html-website-svgrepo-com">
<path id="Vector" d="M0 28.2481V2.93555C0.008125 2.48992 0.366875 2.13117 0.8125 2.12305H39.1875C39.6331 2.13117 39.9919 2.48992 40 2.93555V28.2481H0Z" fill="#415E72"/>
<g id="Group">
<path id="Vector_2" d="M40 28.248V31.498C39.9919 31.9437 39.6331 32.3024 39.1875 32.3105H0.8125C0.366875 32.3024 0.008125 31.9437 0 31.498V28.248H40Z" fill="#CFDCE5"/>
<path id="Vector_3" d="M28.5625 38.0605H11.4375V38.873H28.5625V38.0605Z" fill="#CFDCE5"/>
</g>
<path id="Vector_4" d="M25.6875 38.0605H14.3125L15.125 32.3105H24.875L25.6875 38.0605Z" fill="#AAC1CE"/>
<path id="Vector_5" d="M38.375 3.74805H1.625V26.623H38.375V3.74805Z" fill="white"/>
<path id="Vector_6" d="M24.875 32.3105H15.125L14.6713 35.5199L25.0213 33.3437L24.875 32.3105Z" fill="#8BA0AE"/>
<path id="Vector_7" d="M28.4613 10.8467H26.1444V11.4717H28.4613V10.8467Z" fill="#25B6D2"/>
<path id="Vector_8" d="M22.6687 10.8467H20.3519V11.4717H22.6687V10.8467Z" fill="#AAC1CE"/>
<g id="Group_2">
<path id="Vector_9" d="M15.5937 10.8467H11.2375V11.4717H15.5937V10.8467Z" fill="#E04F5F"/>
<path id="Vector_10" d="M30.105 18.6475H27.7875V19.2725H30.105V18.6475Z" fill="#E04F5F"/>
</g>
<path id="Vector_11" d="M24.3106 18.6484H21.9937V19.2734H24.3106V18.6484Z" fill="#25B6D2"/>
<path id="Vector_12" d="M18.5181 18.6484H11.5669V19.2734H18.5181V18.6484Z" fill="#E04F5F"/>
<path id="Vector_13" d="M30.1044 13.4473H24.3112V14.0723H30.1044V13.4473Z" fill="#415E72"/>
<path id="Vector_14" d="M21.9944 13.4473H19.6762V14.0723H21.9944V13.4473Z" fill="#E04F5F"/>
<path id="Vector_15" d="M17.3594 13.4473H12.2081V14.0723H17.3594V13.4473Z" fill="#AAC1CE"/>
<path id="Vector_16" d="M30.1044 16.0479H25.47V16.6729H30.1044V16.0479Z" fill="#25B6D2"/>
<path id="Vector_17" d="M23.155 16.0479H20.8375V16.6729H23.155V16.0479Z" fill="#AAC1CE"/>
<g id="Group_3">
<path id="Vector_18" d="M16.2012 16.0479H10.6437V16.6729H16.2012V16.0479Z" fill="#415E72"/>
<path id="Vector_19" d="M10.1106 7.28336L11.6194 6.50586V6.73023L10.3481 7.36773V7.37336L11.6194 8.01086V8.23523L10.1106 7.45836V7.28336Z" fill="#415E72"/>
<path id="Vector_20" d="M12.0706 5.92676H12.3569V6.90863H12.3631C12.4119 6.82426 12.4825 6.75426 12.5681 6.70738C12.6569 6.65488 12.7581 6.62738 12.8612 6.62613C13.0725 6.62613 13.4106 6.75613 13.4106 7.29863V8.23613H13.125V7.33176C13.125 7.07801 13.0312 6.86363 12.7612 6.86363C12.5856 6.86676 12.4312 6.98176 12.3775 7.14926C12.3619 7.19301 12.355 7.23988 12.3581 7.28613V8.23613H12.0719L12.0706 5.92676Z" fill="#415E72"/>
<path id="Vector_21" d="M14.2063 6.20996V6.66184H14.6156V6.87996H14.2063V7.72871C14.2063 7.92434 14.2613 8.03434 14.4206 8.03434C14.4769 8.03496 14.5325 8.02871 14.5869 8.01496L14.6 8.22934C14.5188 8.25809 14.4331 8.27184 14.3469 8.26871C14.2313 8.27559 14.1188 8.23184 14.0381 8.14871C13.9506 8.03121 13.9113 7.88496 13.9275 7.73934V6.87996H13.6831V6.66184H13.9275V6.28684L14.2063 6.20996Z" fill="#415E72"/>
<path id="Vector_22" d="M14.9375 7.08785C14.9375 6.92535 14.9375 6.7916 14.9244 6.6616H15.1744L15.1875 6.91535H15.1975C15.2938 6.73285 15.4856 6.62035 15.6919 6.62597C15.8919 6.62347 16.0719 6.7491 16.1375 6.93847H16.1444C16.1881 6.8591 16.2475 6.78972 16.3194 6.7341C16.4194 6.65785 16.5425 6.61847 16.6681 6.62347C16.8763 6.62347 17.185 6.75972 17.185 7.30597V8.23285H16.905V7.34472C16.905 7.04285 16.7944 6.86035 16.5638 6.86035C16.4075 6.86722 16.2719 6.97097 16.2256 7.12035C16.2106 7.1666 16.2031 7.21472 16.2031 7.26347V8.23597H15.9231V7.29285C15.9231 7.04285 15.8125 6.86035 15.595 6.86035C15.4281 6.87035 15.2856 6.98535 15.2406 7.1466C15.225 7.1916 15.2175 7.2391 15.2181 7.2866V8.2366H14.9375V7.08785Z" fill="#415E72"/>
<path id="Vector_23" d="M17.6487 5.92676H17.9375V8.23551H17.6512L17.6487 5.92676Z" fill="#415E72"/>
<path id="Vector_24" d="M19.9025 7.46211L18.3938 8.23648V8.01211L19.6744 7.37336V7.36648L18.3931 6.72898V6.50586L19.9019 7.28023L19.9025 7.46211Z" fill="#415E72"/>
<path id="Vector_25" d="M10.1106 23.2726L11.6194 22.4951V22.7195L10.3481 23.357V23.3639L11.6194 24.0014V24.2257L10.1106 23.4482V23.2726Z" fill="#415E72"/>
<path id="Vector_26" d="M11.83 24.3555L12.7369 21.998H12.9581L12.0475 24.3555H11.83Z" fill="#415E72"/>
<path id="Vector_27" d="M13.1875 21.916H13.4738V22.8979H13.48C13.5288 22.8135 13.5994 22.7435 13.685 22.6966C13.7737 22.6441 13.875 22.6166 13.9781 22.6154C14.1894 22.6154 14.5275 22.7454 14.5275 23.2885V24.226H14.2412V23.321C14.2412 23.0673 14.1475 22.8529 13.8775 22.8529C13.7019 22.856 13.5475 22.971 13.4937 23.1385C13.4781 23.1823 13.4712 23.2291 13.4744 23.2754V24.2254H13.1875V21.916Z" fill="#415E72"/>
<path id="Vector_28" d="M15.3219 22.1992V22.6511H15.7313V22.8692H15.3219V23.718C15.3219 23.913 15.3769 24.0236 15.5363 24.0236C15.5925 24.0242 15.6481 24.018 15.7025 24.0042L15.7156 24.2186C15.6344 24.2473 15.5488 24.2611 15.4625 24.258C15.3469 24.2648 15.2344 24.2211 15.1538 24.138C15.0663 24.0205 15.0269 23.8742 15.0431 23.7286V22.8692H14.7988V22.6511H15.0431V22.2761L15.3219 22.1992Z" fill="#415E72"/>
<path id="Vector_29" d="M16.0531 23.0771C16.0531 22.9146 16.0531 22.7809 16.04 22.6509H16.29L16.3031 22.9046H16.3125C16.4088 22.7221 16.6006 22.6096 16.8069 22.6152C17.0069 22.6127 17.1869 22.7384 17.2525 22.9277H17.2594C17.3031 22.8484 17.3625 22.779 17.4344 22.7234C17.5344 22.6471 17.6575 22.6077 17.7831 22.6127C17.9913 22.6127 18.3 22.749 18.3 23.2952V24.2221H18.02V23.334C18.02 23.0321 17.9094 22.8496 17.6788 22.8496C17.5225 22.8565 17.3869 22.9602 17.3406 23.1096C17.3256 23.1559 17.3181 23.204 17.3181 23.2527V24.2252H17.0381V23.2821C17.0381 23.0321 16.9275 22.8496 16.71 22.8496C16.5431 22.8596 16.4006 22.9746 16.3556 23.1359C16.34 23.1809 16.3325 23.2284 16.3331 23.2759V24.2259H16.0538L16.0531 23.0771Z" fill="#415E72"/>
<path id="Vector_30" d="M18.7638 21.916H19.05V24.2248H18.7638V21.916Z" fill="#415E72"/>
<path id="Vector_31" d="M21.0175 23.4516L19.5088 24.2253V23.9984L20.79 23.3609V23.3541L19.5088 22.7166V22.4922L21.0175 23.2666V23.4516Z" fill="#415E72"/>
</g>
</g>
</svg>
