<svg width="20" height="20" viewBox="0 0 20 20" fill="none" xmlns="http://www.w3.org/2000/svg">
<g id="Group">
<path id="Vector" d="M19.5583 3.74664C19.3249 2.58103 18.6509 1.67051 17.7882 1.3551C16.2362 0.783203 9.98971 0.783203 9.98971 0.783203C9.98971 0.783203 3.7432 0.800533 2.19119 1.37243C1.32848 1.68784 0.654573 2.59836 0.421128 3.76397C-0.0483229 7.48994 -0.23046 13.1673 0.433954 16.7442C0.667399 17.9098 1.34131 18.8203 2.20401 19.1357C3.75602 19.7076 10.0025 19.7076 10.0025 19.7076C10.0025 19.7076 16.2491 19.7076 17.8011 19.1357C18.6638 18.8203 19.3377 17.9098 19.5711 16.7442C20.0662 13.013 20.2189 7.33916 19.5583 3.74664Z" fill="#FF0000"/>
<path id="Vector_2" d="M8.00159 14.2999L13.1835 10.2447L8.00159 6.18945V14.2999Z" fill="white"/>
</g>
</svg>
